<svg xmlns="http://www.w3.org/2000/svg" viewBox="0 0 200 200" fill="none">
  <defs>
    <linearGradient id="shieldGrad" x1="0%" y1="0%" x2="100%" y2="100%">
      <stop offset="0%" style="stop-color:#2563EB;stop-opacity:1" />
      <stop offset="100%" style="stop-color:#10B981;stop-opacity:1" />
    </linearGradient>
  </defs>
  <!-- Shield -->
  <path d="M100 12 L168 42 L168 100 C168 140 138 170 100 184 C62 170 32 140 32 100 L32 42 Z"
    stroke="url(#shieldGrad)" stroke-width="7" fill="none" stroke-linejoin="round"/>
  <!-- Fingerprint lines -->
  <ellipse cx="100" cy="98" rx="8" ry="10" stroke="url(#shieldGrad)" stroke-width="4" fill="none"/>
  <path d="M84 98 C84 82 116 82 116 98 C116 118 84 118 84 98" stroke="url(#shieldGrad)" stroke-width="4" fill="none" stroke-linecap="round"/>
  <path d="M76 98 C76 72 124 72 124 98 C124 128 76 128 76 98" stroke="url(#shieldGrad)" stroke-width="4" fill="none" stroke-linecap="round"/>
  <path d="M68 98 C68 62 132 62 132 98 C132 138 68 138 68 98" stroke="url(#shieldGrad)" stroke-width="4" fill="none" stroke-linecap="round"/>
  <!-- Dot -->
  <circle cx="116" cy="116" r="4" fill="url(#shieldGrad)"/>
</svg>
